<mxfile host="app.diagrams.net" agent="Mozilla/5.0 (Macintosh; Intel Mac OS X 10_15_7) AppleWebKit/605.1.15 (KHTML, like Gecko) Version/26.0.1 Safari/605.1.15" version="28.2.7">
  <diagram name="Page-1" id="UmJcWgQW5-kBxwZM-P0t">
    <mxGraphModel dx="1020" dy="988" grid="1" gridSize="10" guides="1" tooltips="1" connect="1" arrows="1" fold="1" page="1" pageScale="1" pageWidth="850" pageHeight="1100" math="0" shadow="0">
      <root>
        <mxCell id="0" />
        <mxCell id="1" parent="0" />
        <mxCell id="2CvZfWqr4aYp74dCvFw_-3" value="&lt;font style=&quot;font-size: 18px;&quot;&gt;Current State&lt;/font&gt;" style="ellipse;whiteSpace=wrap;html=1;aspect=fixed;" vertex="1" parent="1">
          <mxGeometry x="740" y="120" width="80" height="80" as="geometry" />
        </mxCell>
        <mxCell id="2CvZfWqr4aYp74dCvFw_-7" value="" style="endArrow=classic;html=1;rounded=0;fontSize=13;convertToSvg=1;strokeWidth=2;exitX=0;exitY=0.5;exitDx=0;exitDy=0;" edge="1" parent="1" source="2CvZfWqr4aYp74dCvFw_-3">
          <mxGeometry width="50" height="50" relative="1" as="geometry">
            <mxPoint x="450" y="159.5" as="sourcePoint" />
            <mxPoint x="700" y="160" as="targetPoint" />
          </mxGeometry>
        </mxCell>
        <mxCell id="2CvZfWqr4aYp74dCvFw_-18" value="&lt;font style=&quot;font-size: 18px;&quot;&gt;Update Readme&lt;/font&gt;" style="ellipse;whiteSpace=wrap;html=1;aspect=fixed;" vertex="1" parent="1">
          <mxGeometry x="620" y="120" width="80" height="80" as="geometry" />
        </mxCell>
        <mxCell id="2CvZfWqr4aYp74dCvFw_-19" value="&lt;font size=&quot;4&quot;&gt;Better ballot fn&lt;/font&gt;" style="ellipse;whiteSpace=wrap;html=1;aspect=fixed;" vertex="1" parent="1">
          <mxGeometry x="500" y="120" width="80" height="80" as="geometry" />
        </mxCell>
        <mxCell id="2CvZfWqr4aYp74dCvFw_-23" value="" style="endArrow=classic;html=1;rounded=0;fontSize=13;convertToSvg=1;strokeWidth=2;" edge="1" parent="1">
          <mxGeometry width="50" height="50" relative="1" as="geometry">
            <mxPoint x="380" y="159.57999999999998" as="sourcePoint" />
            <mxPoint x="340" y="159.57999999999998" as="targetPoint" />
            <Array as="points">
              <mxPoint x="340" y="159.57999999999998" />
            </Array>
          </mxGeometry>
        </mxCell>
        <mxCell id="2CvZfWqr4aYp74dCvFw_-24" value="" style="endArrow=classic;html=1;rounded=0;fontSize=13;convertToSvg=1;strokeWidth=2;" edge="1" parent="1">
          <mxGeometry width="50" height="50" relative="1" as="geometry">
            <mxPoint x="620" y="159.70999999999998" as="sourcePoint" />
            <mxPoint x="580" y="159.70999999999998" as="targetPoint" />
            <Array as="points">
              <mxPoint x="580" y="159.70999999999998" />
            </Array>
          </mxGeometry>
        </mxCell>
        <mxCell id="2CvZfWqr4aYp74dCvFw_-25" value="" style="endArrow=classic;html=1;rounded=0;fontSize=13;convertToSvg=1;strokeWidth=2;" edge="1" parent="1">
          <mxGeometry width="50" height="50" relative="1" as="geometry">
            <mxPoint x="500" y="159.70999999999998" as="sourcePoint" />
            <mxPoint x="460" y="159.70999999999998" as="targetPoint" />
            <Array as="points">
              <mxPoint x="460" y="159.70999999999998" />
            </Array>
          </mxGeometry>
        </mxCell>
        <mxCell id="2CvZfWqr4aYp74dCvFw_-26" value="&lt;font size=&quot;4&quot;&gt;Update to 2024 data&lt;/font&gt;" style="ellipse;whiteSpace=wrap;html=1;aspect=fixed;" vertex="1" parent="1">
          <mxGeometry x="380" y="120" width="80" height="80" as="geometry" />
        </mxCell>
        <mxCell id="2CvZfWqr4aYp74dCvFw_-27" value="&lt;font size=&quot;4&quot;&gt;Improve rd layout&lt;/font&gt;" style="ellipse;whiteSpace=wrap;html=1;aspect=fixed;" vertex="1" parent="1">
          <mxGeometry x="260" y="120" width="80" height="80" as="geometry" />
        </mxCell>
        <mxCell id="2CvZfWqr4aYp74dCvFw_-28" value="" style="endArrow=classic;html=1;rounded=0;fontSize=13;convertToSvg=1;strokeWidth=2;" edge="1" parent="1">
          <mxGeometry width="50" height="50" relative="1" as="geometry">
            <mxPoint x="260" y="159.57999999999998" as="sourcePoint" />
            <mxPoint x="220" y="159.57999999999998" as="targetPoint" />
            <Array as="points">
              <mxPoint x="220" y="159.57999999999998" />
            </Array>
          </mxGeometry>
        </mxCell>
        <mxCell id="2CvZfWqr4aYp74dCvFw_-29" value="&lt;font size=&quot;4&quot;&gt;panel data bug fix&lt;/font&gt;" style="ellipse;whiteSpace=wrap;html=1;aspect=fixed;" vertex="1" parent="1">
          <mxGeometry x="140" y="120" width="80" height="80" as="geometry" />
        </mxCell>
        <mxCell id="2CvZfWqr4aYp74dCvFw_-33" value="" style="endArrow=classic;html=1;rounded=0;fontSize=13;convertToSvg=1;strokeWidth=2;" edge="1" parent="1">
          <mxGeometry width="50" height="50" relative="1" as="geometry">
            <mxPoint x="140" y="159.57999999999998" as="sourcePoint" />
            <mxPoint x="100" y="159.57999999999998" as="targetPoint" />
            <Array as="points">
              <mxPoint x="100" y="159.57999999999998" />
            </Array>
          </mxGeometry>
        </mxCell>
        <mxCell id="2CvZfWqr4aYp74dCvFw_-34" value="&lt;font size=&quot;4&quot;&gt;panel data bug fix&lt;/font&gt;" style="ellipse;whiteSpace=wrap;html=1;aspect=fixed;" vertex="1" parent="1">
          <mxGeometry x="20" y="120" width="80" height="80" as="geometry" />
        </mxCell>
        <mxCell id="2CvZfWqr4aYp74dCvFw_-36" value="&lt;font size=&quot;4&quot;&gt;...&lt;/font&gt;" style="ellipse;whiteSpace=wrap;html=1;aspect=fixed;dashed=1;dashPattern=1 1;" vertex="1" parent="1">
          <mxGeometry x="23" y="240" width="80" height="80" as="geometry" />
        </mxCell>
        <mxCell id="2CvZfWqr4aYp74dCvFw_-37" value="&lt;font size=&quot;4&quot;&gt;...&lt;/font&gt;" style="ellipse;whiteSpace=wrap;html=1;aspect=fixed;dashed=1;dashPattern=1 1;" vertex="1" parent="1">
          <mxGeometry x="140" y="240" width="80" height="80" as="geometry" />
        </mxCell>
        <mxCell id="2CvZfWqr4aYp74dCvFw_-38" value="&lt;font size=&quot;4&quot;&gt;...&lt;/font&gt;" style="ellipse;whiteSpace=wrap;html=1;aspect=fixed;dashed=1;dashPattern=1 1;" vertex="1" parent="1">
          <mxGeometry x="257" y="240" width="80" height="80" as="geometry" />
        </mxCell>
        <mxCell id="2CvZfWqr4aYp74dCvFw_-39" value="&lt;font size=&quot;4&quot;&gt;Initial state&lt;/font&gt;" style="ellipse;whiteSpace=wrap;html=1;aspect=fixed;" vertex="1" parent="1">
          <mxGeometry x="380" y="240" width="80" height="80" as="geometry" />
        </mxCell>
        <mxCell id="2CvZfWqr4aYp74dCvFw_-42" value="" style="endArrow=classic;html=1;rounded=0;fontSize=13;convertToSvg=1;strokeWidth=2;exitX=0.536;exitY=1.015;exitDx=0;exitDy=0;exitPerimeter=0;entryX=0.5;entryY=0;entryDx=0;entryDy=0;" edge="1" parent="1" target="2CvZfWqr4aYp74dCvFw_-36">
          <mxGeometry width="50" height="50" relative="1" as="geometry">
            <mxPoint x="62.879999999999995" y="199.99999999999994" as="sourcePoint" />
            <mxPoint x="63" y="230" as="targetPoint" />
            <Array as="points" />
          </mxGeometry>
        </mxCell>
        <mxCell id="2CvZfWqr4aYp74dCvFw_-43" value="" style="endArrow=classic;html=1;rounded=0;fontSize=13;convertToSvg=1;strokeWidth=2;entryX=0;entryY=0.5;entryDx=0;entryDy=0;" edge="1" parent="1" target="2CvZfWqr4aYp74dCvFw_-37">
          <mxGeometry width="50" height="50" relative="1" as="geometry">
            <mxPoint x="103" y="279.65999999999997" as="sourcePoint" />
            <mxPoint x="130" y="280" as="targetPoint" />
            <Array as="points" />
          </mxGeometry>
        </mxCell>
        <mxCell id="2CvZfWqr4aYp74dCvFw_-44" value="" style="endArrow=classic;html=1;rounded=0;fontSize=13;convertToSvg=1;strokeWidth=2;entryX=0;entryY=0.5;entryDx=0;entryDy=0;" edge="1" parent="1">
          <mxGeometry width="50" height="50" relative="1" as="geometry">
            <mxPoint x="220" y="279.83" as="sourcePoint" />
            <mxPoint x="257" y="280.17" as="targetPoint" />
            <Array as="points" />
          </mxGeometry>
        </mxCell>
        <mxCell id="2CvZfWqr4aYp74dCvFw_-46" value="" style="endArrow=classic;html=1;rounded=0;fontSize=13;convertToSvg=1;strokeWidth=2;exitX=1;exitY=0.5;exitDx=0;exitDy=0;" edge="1" parent="1" source="2CvZfWqr4aYp74dCvFw_-38">
          <mxGeometry width="50" height="50" relative="1" as="geometry">
            <mxPoint x="343" y="279.8" as="sourcePoint" />
            <mxPoint x="380" y="280" as="targetPoint" />
            <Array as="points" />
          </mxGeometry>
        </mxCell>
      </root>
    </mxGraphModel>
  </diagram>
</mxfile>
